<svg
  width="750"
  height="250"
  viewBox="0 0 750 250"
  fill="none"
  xmlns="http://www.w3.org/2000/svg"
>
  <g id="app_banner_light">
    <path
      id="BR TE"
      d="M99.2606 130.94H93.1406C93.1406 139.34 93.1406 147.38 93.1406 155.06C93.2606 162.62 93.3806 170.12 93.5006 177.56H99.2606C107.661 177.56 114.141 175.64 118.701 171.8C123.381 167.96 125.721 162.2 125.721 154.52C125.721 146.36 123.501 140.42 119.061 136.7C114.741 132.86 108.141 130.94 99.2606 130.94ZM99.8006 80.18H93.5006C93.3806 86.9 93.2606 93.74 93.1406 100.7C93.1406 107.54 93.1406 114.44 93.1406 121.4H98.1806C105.861 121.4 111.501 119.6 115.101 116C118.701 112.28 120.501 106.88 120.501 99.8C120.501 86.72 113.601 80.18 99.8006 80.18ZM49.5806 79.46V69.74H107.721C117.921 69.74 126.081 71 132.201 73.52C138.321 75.92 142.761 79.22 145.521 83.42C148.281 87.62 149.661 92.36 149.661 97.64C149.661 101.72 148.761 105.56 146.961 109.16C145.161 112.64 142.041 115.76 137.601 118.52C133.161 121.16 126.981 123.2 119.061 124.64C132.501 126.2 142.101 129.62 147.861 134.9C153.741 140.06 156.681 146.72 156.681 154.88C156.681 158.6 155.841 162.44 154.161 166.4C152.481 170.24 149.601 173.78 145.521 177.02C141.441 180.26 135.741 182.9 128.421 184.94C121.221 186.98 112.041 188 100.881 188H49.5806V178.28L63.0806 176.84C63.3206 169.4 63.4406 161.9 63.4406 154.34C63.4406 146.78 63.4406 139.16 63.4406 131.48V126.26C63.4406 118.82 63.4406 111.32 63.4406 103.76C63.4406 96.08 63.3206 88.46 63.0806 80.9L49.5806 79.46ZM224.486 80.18H217.286C217.166 87.62 217.046 95.06 216.926 102.5C216.926 109.82 216.926 116.84 216.926 123.56H223.766C229.766 123.56 234.446 122.54 237.806 120.5C241.166 118.46 243.566 115.76 245.006 112.4C246.446 109.04 247.166 105.44 247.166 101.6C247.166 87.32 239.606 80.18 224.486 80.18ZM173.366 79.46V69.74H231.866C246.026 69.74 256.886 72.38 264.446 77.66C272.126 82.94 275.966 90.26 275.966 99.62C275.966 103.58 274.946 107.54 272.906 111.5C270.866 115.34 267.506 118.76 262.826 121.76C258.146 124.64 251.786 126.74 243.746 128.06C250.586 128.9 255.926 130.58 259.766 133.1C263.606 135.5 266.486 138.68 268.406 142.64C270.326 146.48 271.706 151.22 272.546 156.86L275.966 176.84L289.646 178.28V188C286.766 188.6 284.366 189.08 282.446 189.44C280.526 189.92 278.606 190.22 276.686 190.34C274.886 190.46 272.606 190.52 269.846 190.52C262.166 190.52 256.106 189.2 251.666 186.56C247.346 183.92 244.706 179.12 243.746 172.16L240.506 151.28C239.666 145.28 237.926 140.84 235.286 137.96C232.766 135.08 228.806 133.64 223.406 133.64H216.926C216.926 141.32 216.926 148.7 216.926 155.78C217.046 162.86 217.166 169.88 217.286 176.84L231.326 178.28V188H173.366V178.28L186.866 176.84C187.106 169.52 187.226 162.14 187.226 154.7C187.226 147.26 187.226 139.76 187.226 132.2V125.54C187.226 118.1 187.226 110.66 187.226 103.22C187.226 95.66 187.106 88.22 186.866 80.9L173.366 79.46ZM491.827 103.22L492.547 69.74H598.207L598.747 103.22H583.807L580.567 79.82H560.767C560.647 87.26 560.527 94.82 560.407 102.5C560.407 110.06 560.407 117.74 560.407 125.54V132.02C560.407 139.46 560.407 146.9 560.407 154.34C560.527 161.78 560.647 169.22 560.767 176.66L576.247 178.28V188H514.507V178.28L529.807 176.66C530.047 169.34 530.167 161.96 530.167 154.52C530.167 147.08 530.167 139.64 530.167 132.2V125.54C530.167 117.98 530.167 110.42 530.167 102.86C530.167 95.18 530.047 87.5 529.807 79.82H510.187L506.767 103.22H491.827ZM617.249 79.46V69.74H709.049L710.309 100.7H695.369L691.769 79.82H661.709C661.589 86.66 661.469 93.56 661.349 100.52C661.349 107.48 661.349 114.5 661.349 121.58H680.789L682.949 107.54H693.389V146.24H682.949L680.789 132.2H661.349C661.349 140.48 661.349 148.34 661.349 155.78C661.469 163.22 661.589 170.6 661.709 177.92H695.369L698.969 157.04H713.909L712.649 188H617.249V178.28L630.749 176.84C630.989 169.52 631.109 162.14 631.109 154.7C631.109 147.26 631.109 139.76 631.109 132.2V125.54C631.109 118.1 631.109 110.66 631.109 103.22C631.109 95.66 630.989 88.22 630.749 80.9L617.249 79.46Z"
      fill="#ABABFF"
    />
    <g id="icon" clip-path="url(#clip0_2029_51)">
      <g id="Left Part">
        <path
          id="Vector"
          d="M309 105.277V47L377.687 86.2739V127.53H344.258L309 105.277Z"
          fill="#ABABFF"
        />
        <path
          id="Vector 10"
          d="M323.211 168.347L339.813 141.741L377.687 158.452V224.639L323.211 168.347Z"
          fill="#ABABFF"
        />
        <path
          id="Vector 9"
          d="M377.687 134.635L341.513 134.635L377.687 150.873V134.635Z"
          fill="#ABABFF"
        />
      </g>
      <g id="Left Part_2">
        <path
          id="Vector_2"
          d="M453.48 105.277V47L384.793 86.2739V127.53H418.222L453.48 105.277Z"
          fill="#ABABFF"
        />
        <path
          id="Vector 10_2"
          d="M439.269 168.347L422.667 141.741L384.793 158.452V224.639L439.269 168.347Z"
          fill="#ABABFF"
        />
        <path
          id="Vector 9_2"
          d="M384.793 134.635L420.967 134.635L384.793 150.873V134.635Z"
          fill="#ABABFF"
        />
      </g>
    </g>
  </g>
  <defs>
    <clipPath id="clip0_2029_51">
      <rect
        width="144.48"
        height="177.639"
        fill="white"
        transform="translate(309 47)"
      />
    </clipPath>
  </defs>
</svg>
